<svg width="24" height="24" viewBox="0 0 24 24" fill="none" xmlns="http://www.w3.org/2000/svg">
<path d="M21.7504 5.96015C21.0332 6.26953 20.2527 6.49218 19.4488 6.5789C20.2835 6.08305 20.9085 5.29968 21.2066 4.37578C20.4234 4.84169 19.5654 5.16839 18.6707 5.3414C18.2967 4.94162 17.8445 4.62313 17.342 4.40579C16.8396 4.18845 16.2978 4.07691 15.7504 4.07812C13.5355 4.07812 11.7543 5.87343 11.7543 8.07656C11.7543 8.38593 11.7918 8.69531 11.8527 8.99296C8.53633 8.81953 5.57852 7.23515 3.61211 4.80937C3.25381 5.42136 3.06605 6.11818 3.06836 6.82734C3.06836 8.21484 3.77383 9.43828 4.84961 10.1578C4.21564 10.1328 3.59651 9.95858 3.04258 9.64921V9.69843C3.04258 11.6414 4.41602 13.2516 6.24648 13.6219C5.90279 13.7111 5.54924 13.7568 5.19414 13.7578C4.93398 13.7578 4.68789 13.732 4.43945 13.6969C4.9457 15.2812 6.41992 16.432 8.17539 16.4695C6.80195 17.5453 5.08164 18.1781 3.21367 18.1781C2.87852 18.1781 2.56914 18.1664 2.24805 18.1289C4.01992 19.2656 6.12227 19.9219 8.38633 19.9219C15.7363 19.9219 19.7582 13.8328 19.7582 8.54765C19.7582 8.37421 19.7582 8.20078 19.7465 8.02734C20.5246 7.45781 21.2066 6.75234 21.7504 5.96015Z" fill="#C98A40"/>
</svg>
