<svg width="24" height="24" viewBox="0 0 24 24" fill="none" xmlns="http://www.w3.org/2000/svg">
<path d="M20.9461 8.30499C20.936 7.54761 20.7942 6.79776 20.5271 6.08899C20.2954 5.49114 19.9416 4.94819 19.4883 4.49482C19.0349 4.04145 18.4919 3.68764 17.8941 3.45599C17.1944 3.19334 16.4553 3.05133 15.7081 3.03599C14.7461 2.99299 14.4411 2.98099 11.9991 2.98099C9.55709 2.98099 9.24409 2.98099 8.28909 3.03599C7.54225 3.05144 6.80344 3.19346 6.10409 3.45599C5.50615 3.68748 4.96311 4.04123 4.50973 4.49462C4.05634 4.94801 3.70258 5.49105 3.47109 6.08899C3.20792 6.78812 3.06622 7.5271 3.05209 8.27399C3.00909 9.23699 2.99609 9.54199 2.99609 11.984C2.99609 14.426 2.99609 14.738 3.05209 15.694C3.06709 16.442 3.20809 17.18 3.47109 17.881C3.70297 18.4787 4.05699 19.0216 4.51053 19.4748C4.96407 19.928 5.50716 20.2816 6.10509 20.513C6.80253 20.7862 7.54147 20.9384 8.29009 20.963C9.25309 21.006 9.55809 21.019 12.0001 21.019C14.4421 21.019 14.7551 21.019 15.7101 20.963C16.4572 20.9483 17.1965 20.8066 17.8961 20.544C18.4938 20.3121 19.0366 19.9582 19.4899 19.5048C19.9433 19.0515 20.2972 18.5087 20.5291 17.911C20.7921 17.211 20.9331 16.473 20.9481 15.724C20.9911 14.762 21.0041 14.457 21.0041 12.014C21.0021 9.57199 21.0021 9.26199 20.9461 8.30499ZM11.9931 16.602C9.43909 16.602 7.37009 14.533 7.37009 11.979C7.37009 9.42499 9.43909 7.35599 11.9931 7.35599C13.2192 7.35599 14.3951 7.84305 15.262 8.71003C16.129 9.57701 16.6161 10.7529 16.6161 11.979C16.6161 13.2051 16.129 14.381 15.262 15.2479C14.3951 16.1149 13.2192 16.602 11.9931 16.602ZM16.8001 8.26299C16.2031 8.26299 15.7221 7.78099 15.7221 7.18499C15.7221 7.04349 15.75 6.90337 15.8041 6.77265C15.8583 6.64192 15.9376 6.52314 16.0377 6.42308C16.1377 6.32302 16.2565 6.24366 16.3873 6.18951C16.518 6.13536 16.6581 6.10749 16.7996 6.10749C16.9411 6.10749 17.0812 6.13536 17.2119 6.18951C17.3427 6.24366 17.4614 6.32302 17.5615 6.42308C17.6616 6.52314 17.7409 6.64192 17.7951 6.77265C17.8492 6.90337 17.8771 7.04349 17.8771 7.18499C17.8771 7.78099 17.3951 8.26299 16.8001 8.26299Z" fill="#C98A40"/>
<path d="M11.9932 14.982C13.6517 14.982 14.9962 13.6375 14.9962 11.979C14.9962 10.3205 13.6517 8.97601 11.9932 8.97601C10.3347 8.97601 8.99023 10.3205 8.99023 11.979C8.99023 13.6375 10.3347 14.982 11.9932 14.982Z" fill="#C98A40"/>
</svg>
