<svg width="24" height="24" viewBox="0 0 24 24" fill="none" xmlns="http://www.w3.org/2000/svg">
<path d="M19.2291 15.26L16.6891 14.97C16.3904 14.9349 16.0877 14.968 15.8036 15.0667C15.5196 15.1654 15.2616 15.3273 15.0491 15.54L13.2091 17.38C10.3703 15.9362 8.06284 13.6288 6.61906 10.79L8.46906 8.94001C8.89906 8.51001 9.10906 7.91001 9.03906 7.30001L8.74906 4.78001C8.69237 4.29219 8.45826 3.84225 8.0913 3.51586C7.72434 3.18947 7.25017 3.00943 6.75906 3.01001H5.02906C3.89906 3.01001 2.95906 3.95001 3.02906 5.08001C3.55906 13.62 10.3891 20.44 18.9191 20.97C20.0491 21.04 20.9891 20.1 20.9891 18.97V17.24C20.9991 16.23 20.2391 15.38 19.2291 15.26Z" fill="#C98A40"/>
</svg>
