<svg width="18" height="18" viewBox="0 0 18 18" fill="none" xmlns="http://www.w3.org/2000/svg">
<path d="M15.9633 6.20694L11.5002 5.55831L9.50509 1.51358C9.4506 1.40284 9.36095 1.31319 9.25021 1.2587C8.97247 1.12159 8.63497 1.23585 8.49611 1.51358L6.50099 5.55831L2.0379 6.20694C1.91486 6.22452 1.80236 6.28253 1.71622 6.37042C1.61209 6.47744 1.55471 6.62143 1.55669 6.77074C1.55867 6.92006 1.61984 7.06247 1.72677 7.16671L4.95587 10.3149L4.19298 14.7605C4.17509 14.8639 4.18653 14.9702 4.22601 15.0675C4.26549 15.1647 4.33143 15.2489 4.41634 15.3106C4.50126 15.3723 4.60175 15.4089 4.70644 15.4164C4.81112 15.4239 4.9158 15.4018 5.00861 15.3528L9.0006 13.254L12.9926 15.3528C13.1016 15.4108 13.2281 15.4302 13.3494 15.4091C13.6553 15.3564 13.861 15.0663 13.8082 14.7605L13.0453 10.3149L16.2744 7.16671C16.3623 7.08057 16.4203 6.96807 16.4379 6.84503C16.4854 6.53741 16.2709 6.25264 15.9633 6.20694Z" fill="#C98A40"/>
</svg>
